<svg width="800" height="500" viewBox="0 0 800 500" fill="none" xmlns="http://www.w3.org/2000/svg">
<rect width="800" height="500" fill="#222222"/>
<path d="M399.999 268.514C410.291 268.514 418.635 260.225 418.635 250C418.635 239.775 410.291 231.486 399.999 231.486C389.706 231.486 381.362 239.775 381.362 250C381.362 260.225 389.706 268.514 399.999 268.514Z" fill="#61DAFB"/>
<path d="M400 287.931C455.228 287.931 500 270.949 500 250C500 229.051 455.228 212.069 400 212.069C344.772 212.069 300 229.051 300 250C300 270.949 344.772 287.931 400 287.931Z" stroke="#61DAFB" stroke-width="9"/>
<path d="M366.934 268.965C394.548 316.481 431.738 346.509 450 336.034C468.262 325.56 460.681 278.55 433.066 231.034C405.452 183.519 368.262 153.491 350 163.966C331.738 174.44 339.319 221.45 366.934 268.965Z" stroke="#61DAFB" stroke-width="9"/>
<path d="M366.934 231.035C339.319 278.55 331.738 325.56 350 336.034C368.262 346.509 405.452 316.481 433.066 268.966C460.681 221.45 468.262 174.44 450 163.966C431.738 153.492 394.548 183.519 366.934 231.035Z" stroke="#61DAFB" stroke-width="9"/>
</svg>
